<?xml version="1.0" encoding="UTF-8" standalone="no"?>
<!DOCTYPE svg PUBLIC "-//W3C//DTD SVG 1.1//EN"
 "http://www.w3.org/Graphics/SVG/1.1/DTD/svg11.dtd">
<!-- Generated by graphviz version 2.40.1 (20161225.0304)
 -->
<!-- Pages: 1 -->
<svg width="128pt" height="72pt"
 viewBox="0.00 0.00 128.00 72.00" xmlns="http://www.w3.org/2000/svg" xmlns:xlink="http://www.w3.org/1999/xlink">
<g id="graph0" class="graph" transform="scale(1 1) rotate(0) translate(4 68)">
<polygon fill="#ffffff" stroke="transparent" points="-4,4 -4,-68 124,-68 124,4 -4,4"/>
<!-- cars -->
<g id="node1" class="node db&#45;tables">
<title>cars</title>
<polygon fill="#3498db" stroke="transparent" points="8,-32 8,-60 112,-60 112,-32 8,-32"/>
<polygon fill="none" stroke="#000000" points="8,-32 8,-60 112,-60 112,-32 8,-32"/>
<text text-anchor="start" x="13.7328" y="-41.4" font-family="Times,serif" font-size="14.00" fill="#000000"> &#160;&#160;&#160;&#160;&#160;&#160;&#160;&#160;&#160;&#160;&#160;cars &#160;&#160;&#160;&#160;&#160;&#160;&#160;</text>
<polygon fill="none" stroke="#000000" points="8,-4 8,-32 46,-32 46,-4 8,-4"/>
<text text-anchor="start" x="19.8047" y="-13.4" font-family="Times,serif" font-size="14.00" fill="#000000">id </text>
<polygon fill="none" stroke="#000000" points="46,-4 46,-32 112,-32 112,-4 46,-4"/>
<text text-anchor="start" x="57.8145" y="-13.4" font-family="Times,serif" font-size="14.00" fill="#000000">integer </text>
</g>
</g>
</svg>
